<svg id="svg" xmlns="http://www.w3.org/2000/svg" xmlns:xlink="http://www.w3.org/1999/xlink" width="400" height="153.8"
    viewBox="0 0 400 153.77969762419005">
    <g id="svgg">
        <path id="path0"
            d="M 337 2.6 C 329.3 13.1 329.4 22 337.3 31.5 C 339.8 34.6 341 34.2 344.8 28.9 C 350.3 21.2 350 11.6 344.1 3.8 C 340.6 -0.7 339.6 -0.9 337 2.6 M 316.4 7.8 C 317.2 15.7 327.4 22.2 327.4 14.8 C 327.4 10.3 325.8 7.3 322.3 5.3 C 316.9 2.3 315.9 2.7 316.4 7.8 M 357.9 5.1 C 353.3 8 350.5 16.6 353.8 17.8 C 357.4 19.2 363.7 12.3 363.7 6.9 C 363.7 2.9 362.4 2.4 357.9 5.1 M 297.2 9.7 C 297.2 15.1 303 22.1 305.9 20.2 C 308.7 18.5 305.6 8.7 301.8 7 C 298 5.3 297.2 5.8 297.2 9.7 M 376.2 9 C 373.2 11.9 371.9 18.9 374 20.3 C 375.4 21.1 380.1 17.8 381.4 15 C 385.1 7.3 381.7 3.4 376.2 9 M 310.2 20.4 C 310.2 28.9 321.1 36.9 328.7 34 C 332.6 32.5 327.1 22.1 321.3 20.2 C 313.6 17.6 310.1 17.7 310.2 20.4 M 361.8 19.4 C 350.7 21.8 345.1 34.6 355.1 34.6 C 361.7 34.6 366.4 31 368.8 24 C 371 17.5 370.9 17.4 361.8 19.4 M 289.6 22.6 C 283.6 24.3 291.7 32.8 300.8 34.4 C 303 34.8 304.8 35.7 305.6 36.9 L 306.9 38.9 L 296 38.9 L 285.1 38.9 L 285.1 51.1 C 285.1 62.3 285.2 63.2 286.6 62.6 C 296.3 58.5 318 57 324 60.1 L 326.6 61.4 L 326.6 72.2 C 326.6 85.9 327.5 85.8 336.6 71.1 C 341 63.9 343.1 61.1 343.6 61.7 C 344.3 62.4 333.9 81 330.3 85.4 L 326.6 90 L 326.6 102.9 C 326.6 117.2 326.9 117.8 331.4 113 C 335.5 108.6 338.4 104.5 341.2 98.9 C 343 95.5 343.8 94.4 343.8 95.6 C 343.9 99.4 340.2 106.8 335.3 112.7 C 329.1 120.4 327 123.8 325.7 128.7 C 322.9 139.6 316.5 145 302.6 148.2 C 295.7 149.8 293.7 150.8 294.3 152.5 C 294.9 154.1 384.8 154.5 385.8 152.8 C 386.8 151.2 384.2 149.7 377.7 148.2 C 356.8 143.6 354.1 138.3 353.5 100.8 C 353.2 74.4 353.2 74.2 351.5 75.7 C 349.5 77.5 349.9 74.3 352.1 70 C 352.7 68.8 353.5 66.4 353.8 64.6 C 354.7 59.1 356.3 58.5 372.1 58.9 C 385.2 59.3 386.9 59.5 394.2 62.6 C 395.6 63.2 395.7 62.3 395.7 51.1 L 395.7 39 L 384.2 38.7 C 371.6 38.4 366 39.8 359.7 44.5 C 355.7 47.6 356.1 46.3 360.7 41.4 C 364.7 37.1 365.7 34.8 363.1 35.9 C 357.3 38.2 351.5 39 342.7 38.7 C 335.2 38.4 333.5 38.5 333.8 39.5 C 334.4 41 333.7 40.9 331 39 C 329.4 37.8 327.2 37.3 323.8 37.3 C 321 37.2 318 36.8 317 36.2 C 313.9 34.6 314 36.2 317.3 39.6 C 319.1 41.4 320.5 43.1 320.5 43.5 C 320.5 44.4 315.5 41.7 313.5 39.6 C 312.5 38.6 310.3 36.9 308.7 35.8 C 305.7 33.8 305.7 33.7 307.8 33.7 C 310.7 33.7 310.2 31.6 306.2 27 C 302.1 22.2 296.3 20.6 289.6 22.6 M 379.6 22.9 C 375.8 24.5 370.6 30.2 370.6 32.7 C 370.6 34.1 378 34.7 382.2 33.6 C 386.3 32.6 393.6 26 392.9 23.9 C 392.1 21.7 383.7 21.1 379.6 22.9 M 292.4 63.5 C 288.9 64.7 280.5 73 281 74.6 C 283.1 80.7 298.6 77.3 302.4 69.9 C 306.2 62.5 302.4 60 292.4 63.5 M 312.7 64.1 C 305.7 68.9 305.3 72.5 311.9 72.6 C 317.9 72.6 326.5 65.2 323 63 C 320.8 61.6 315.7 62.2 312.7 64.1 M 357.8 63 C 354.4 65.1 361.3 71.9 367.4 72.3 C 373.6 72.8 375.1 71.7 372.7 68.5 C 368.8 63.3 361.6 60.6 357.8 63 M 376.2 63.4 C 375.1 66.3 379.4 73.3 384 76.1 L 386.6 77.7 L 378.8 77.7 C 373.7 77.7 370.3 77.3 368.9 76.5 C 366.8 75.3 358.5 74.7 357.5 75.6 C 356.4 76.7 359 82.3 361.7 84.7 L 364.5 87.2 L 364.8 97.4 L 365 107.6 L 374.1 110.7 L 383.2 113.8 L 383.4 117.5 C 383.9 124.5 382 126.9 376.9 125.6 C 375.2 125.1 374.9 124.5 374.9 120.9 C 374.9 116.2 373.8 115.4 367.9 115.9 L 365 116.2 L 364.8 123.4 C 364.4 134.1 366.2 135.6 378.8 135.6 C 387.6 135.6 388 135.6 390.7 133.1 L 393.5 130.6 L 393.8 119.3 C 394.1 105.6 394.5 106.2 383.5 102.7 L 374.9 100.1 L 374.9 94.2 C 374.9 88.6 375.1 88.3 377.2 87.7 C 381.8 86.6 383.2 88 383.8 94.6 C 384 97.1 384.1 97.2 388.8 97.2 L 393.5 97.2 L 393.5 90 C 393.5 83 393.5 82.7 390.7 80.3 L 387.9 77.8 L 390.5 77.8 C 393.2 77.8 400 75.4 400 74.4 C 399.9 68 378.2 58 376.2 63.4 M 311.4 76.4 C 310.2 77.3 307.4 77.7 302.2 77.7 C 287.7 77.8 287.7 77.9 287.7 106.7 C 287.7 135.6 287.7 135.6 302.4 135.6 C 317 135.6 317.1 135.5 317.1 107.4 L 317.1 86 L 319.3 83.8 C 321.8 81.5 323.4 78 322.7 76.3 C 322.1 74.7 313.6 74.8 311.4 76.4 M 2.5 80.3 L 0 82.8 L 0 106.7 L 0 130.6 L 2.5 133.1 C 5 135.6 5.1 135.6 15.1 135.6 C 30.1 135.6 31.6 133.5 30.9 112.7 L 30.7 104.1 L 23.1 103.9 L 15.5 103.6 L 15.7 108.6 C 16 113.3 16.1 113.6 18.4 113.9 C 20.6 114.1 20.7 114.4 20.7 118.6 C 20.7 125 18.6 126.9 12.9 125.7 L 10.4 125.1 L 10.4 106.7 C 10.4 88.4 10.4 88.3 12.3 87.8 C 17.9 86.3 20.1 87.6 20.7 93 L 21.2 97.2 L 24.9 97.5 C 29.7 97.8 31.1 96.6 31.1 92.1 C 31 80.1 28.4 77.8 15 77.8 C 5.2 77.8 5 77.8 2.5 80.3 M 38.9 106.7 L 38.9 135.6 L 44.1 135.6 L 49.2 135.6 L 49.2 126.1 L 49.2 116.6 L 51.4 116.6 C 53.6 116.6 53.6 116.6 57 129.6 L 58.4 135.2 L 63.8 135.5 C 66.7 135.6 69.1 135.6 69.1 135.5 C 69.1 135.3 67.9 130.8 66.5 125.4 L 64 115.7 L 66.3 113.6 C 68.7 111.6 68.7 111.5 69 98.6 C 69.4 78.5 68.7 77.8 50.5 77.8 L 38.9 77.8 L 38.9 106.7 M 77.3 78.8 C 77.1 79.4 77 92.4 77.1 107.6 L 77.3 135.2 L 92 135.2 L 106.7 135.2 L 106.7 130.9 L 106.7 126.6 L 97 126.3 L 87.3 126.1 L 87.3 118.8 L 87.3 111.5 L 94.8 111.3 L 102.4 111 L 102.6 107.3 C 103 101.8 102 101.1 94.1 101.1 L 87.3 101.1 L 87.3 94.6 L 87.3 88.1 L 96.2 88.1 C 106.6 88.1 107.4 87.6 107 81.9 L 106.7 78.2 L 92.2 77.9 C 81 77.8 77.6 78 77.3 78.8 M 114.9 106.7 L 114.9 135.6 L 129.6 135.6 L 144.3 135.6 L 144.3 130.9 L 144.3 126.1 L 134.8 126.1 L 125.3 126.1 L 125.3 118.8 L 125.3 111.4 L 132.6 111.4 L 140 111.4 L 140 106.8 C 140 101.3 139.7 101.1 131.2 101.1 L 125.3 101.1 L 125.3 94.6 L 125.3 88.1 L 133.4 88.1 C 144.2 88.1 144.3 88.1 144.3 82.4 L 144.3 77.8 L 129.6 77.8 L 114.9 77.8 L 114.9 106.7 M 152.4 78.8 C 152.2 79.4 152.1 92.4 152.3 107.6 L 152.5 135.2 L 157.2 135.5 C 163.3 135.8 163.2 135.9 163.3 120.1 L 163.4 106.7 L 168.6 121.2 L 173.8 135.6 L 178.9 135.6 L 184 135.6 L 184 106.7 L 184 77.8 L 178.9 77.8 L 173.7 77.8 L 173.5 93 L 173.2 108.2 L 169.4 97.5 C 167.3 91.6 164.9 84.8 164 82.3 L 162.3 77.8 L 157.6 77.8 C 154.6 77.8 152.7 78.2 152.4 78.8 M 211.7 106.7 L 211.7 135.7 L 216.6 135.5 L 221.6 135.2 L 221.8 125.9 C 222.1 116.9 222.1 116.6 224.1 116.6 C 225.9 116.6 226.3 117.5 228.6 125.9 L 231.1 135.2 L 236.1 135.5 C 242 135.8 241.9 136.2 238.8 124.2 L 236.5 115.6 L 238.3 114.4 C 241 112.5 241.9 107.9 241.9 96.5 C 241.9 79 240.7 77.8 223.6 77.8 L 211.7 77.8 L 211.7 106.7 M 254.3 78.8 C 250 80.8 249.6 83.7 249.9 108.1 L 250.1 130.6 L 252.9 133.1 C 256.9 136.7 272.2 137 276.2 133.6 L 278.6 131.5 L 278.6 106.7 L 278.6 81.9 L 276.2 79.8 C 273.5 77.5 258.4 76.8 254.3 78.8 M 57.3 88.4 C 58.6 89.3 58.8 90.7 58.6 97.6 L 58.3 105.8 L 53.8 106.1 L 49.2 106.4 L 49.2 96.8 L 49.2 87.3 L 52.5 87.3 C 54.3 87.3 56.5 87.7 57.3 88.4 M 230.2 88.6 C 231.2 89.6 231.5 91.7 231.5 96.4 C 231.5 105 230.8 106.3 225.9 106.3 L 222 106.3 L 222 96.8 L 222 87.3 L 225.4 87.3 C 227.4 87.3 229.4 87.8 230.2 88.6 M 268.5 88.3 C 270 89.8 270 123.6 268.5 125.1 C 267.4 126.2 263.7 126.5 261.4 125.6 C 259.6 124.9 259.3 88.6 261.1 87.8 C 263.2 87 267.5 87.3 268.5 88.3 M 306.3 106.7 L 306.3 125.7 L 302.4 125.7 L 298.5 125.7 L 298.3 107.6 C 298 86.3 297.8 87.1 302.6 87.4 L 306.3 87.7 L 306.3 106.7"
            stroke="none" fill="#ffffff" fill-rule="evenodd"></path>
    </g>
</svg>