<svg id="svg" xmlns="http://www.w3.org/2000/svg" xmlns:xlink="http://www.w3.org/1999/xlink" width="400" height="400" viewBox="0, 0, 400,400"><g id="svgg"><path id="path0" d="M196.678 74.421 C 194.660 75.598,189.631 82.955,187.001 88.574 C 181.219 100.931,184.667 116.604,195.474 127.078 L 198.163 129.684 202.415 125.042 C 215.085 111.213,215.065 92.065,202.366 77.400 C 198.838 73.326,198.688 73.247,196.678 74.421 M159.672 79.794 C 158.715 80.751,159.238 88.943,160.441 91.826 C 162.765 97.399,173.066 104.613,176.059 102.764 C 178.765 101.091,176.126 89.080,172.266 85.498 C 168.933 82.405,160.762 78.705,159.672 79.794 M233.265 79.894 C 232.999 80.325,231.748 80.904,230.485 81.181 C 222.914 82.844,215.585 98.251,220.179 102.846 C 222.449 105.116,234.584 96.264,236.069 91.255 C 237.911 85.039,235.678 75.991,233.265 79.894 M128.018 89.000 C 128.045 98.102,130.092 101.611,137.838 105.837 C 142.495 108.377,142.786 108.007,142.794 99.542 C 142.802 92.109,140.476 88.298,134.089 85.277 C 127.987 82.390,127.998 82.384,128.018 89.000 M262.740 84.824 C 255.406 88.186,251.514 96.151,253.587 103.555 C 254.924 108.328,254.860 108.314,259.943 104.909 C 265.796 100.989,268.000 96.790,268.000 89.560 C 268.000 83.280,267.361 82.705,262.740 84.824 M150.131 104.652 C 148.523 104.972,148.588 105.700,150.900 113.282 C 154.656 125.599,167.696 132.555,180.563 129.105 C 185.056 127.901,177.184 111.908,170.363 108.381 C 166.471 106.368,153.510 103.979,150.131 104.652 M241.200 104.563 C 227.291 105.466,218.259 112.268,215.069 124.243 C 213.756 129.171,214.336 129.572,222.800 129.587 C 236.081 129.611,245.740 120.875,246.572 108.086 C 246.825 104.190,246.836 104.197,241.200 104.563 M119.521 110.468 C 109.478 111.435,109.084 111.818,112.724 117.056 C 119.552 126.884,126.215 130.038,138.645 129.327 C 148.862 128.742,148.420 128.946,146.962 125.486 C 142.255 114.318,132.873 109.183,119.521 110.468 M268.400 110.469 C 262.711 111.136,260.451 112.268,256.170 116.591 C 252.349 120.451,248.181 127.647,249.184 128.651 C 250.630 130.098,268.381 129.209,272.000 127.508 C 276.609 125.343,286.400 115.166,286.400 112.541 C 286.400 111.071,274.727 109.727,268.400 110.469 M141.521 134.132 L 143.929 138.000 125.964 138.215 L 108.000 138.430 108.000 157.701 C 108.000 175.741,108.089 176.934,109.400 176.391 C 110.170 176.072,114.220 174.597,118.400 173.114 L 126.000 170.416 146.984 170.408 C 178.023 170.396,176.800 169.432,176.800 193.923 C 176.800 203.448,177.111 210.400,177.538 210.400 C 178.804 210.400,184.222 203.529,188.722 196.213 C 201.313 175.749,206.711 168.682,222.495 152.000 C 232.626 141.292,238.872 133.805,238.217 133.150 C 238.030 132.964,234.885 133.903,231.228 135.237 C 219.986 139.340,202.898 140.069,188.400 137.065 C 186.112 136.591,186.060 136.638,187.278 138.084 C 191.021 142.523,188.067 143.102,183.361 138.850 C 180.390 136.167,180.156 136.102,173.559 136.136 C 167.560 136.166,163.412 135.376,158.200 133.211 C 155.551 132.110,156.803 134.238,162.482 140.490 C 165.607 143.931,167.795 146.868,167.345 147.018 C 165.826 147.525,158.834 143.358,153.600 138.827 C 144.218 130.707,137.847 128.231,141.521 134.132 M244.400 140.193 C 236.348 143.540,230.721 147.173,223.600 153.622 C 212.847 163.359,208.777 169.143,196.593 192.000 C 187.620 208.833,186.205 211.064,180.256 217.762 L 176.800 221.653 176.800 243.627 C 176.800 256.223,177.109 265.600,177.525 265.600 C 178.404 265.600,192.000 251.264,192.000 250.337 C 192.000 249.976,193.170 247.961,194.600 245.860 C 196.030 243.758,198.885 238.610,200.945 234.419 L 204.691 226.800 204.736 230.400 C 204.794 235.032,203.220 240.856,200.412 246.400 C 197.747 251.662,197.696 251.730,185.474 266.247 C 183.424 268.681,180.942 272.321,179.958 274.336 C 178.974 276.351,177.733 278.540,177.201 279.200 C 176.670 279.860,175.773 282.740,175.210 285.600 C 171.481 304.535,159.389 314.275,132.097 320.331 C 124.472 322.023,122.460 323.316,123.448 325.891 C 124.149 327.719,272.001 327.926,273.516 326.101 C 274.836 324.511,273.754 322.459,271.312 321.920 C 240.385 315.087,230.211 308.836,224.108 292.921 C 220.324 283.052,220.000 278.553,220.000 235.884 L 220.000 196.475 216.703 199.638 L 213.406 202.800 213.928 199.600 C 214.215 197.840,215.700 193.880,217.229 190.800 C 219.157 186.914,220.008 184.098,220.009 181.600 C 220.014 171.580,223.051 170.412,249.113 170.405 L 270.626 170.400 280.096 173.600 C 285.305 175.360,289.754 176.800,289.983 176.800 C 290.212 176.800,290.400 168.160,290.400 157.600 L 290.400 138.400 274.600 138.393 C 265.910 138.389,257.000 138.194,254.800 137.960 C 251.483 137.606,249.708 137.987,244.400 140.193 M161.828 154.349 C 170.226 156.573,170.417 157.195,162.309 155.917 C 158.320 155.288,150.617 155.149,138.600 155.489 L 120.800 155.992 120.800 153.927 L 120.800 151.863 137.800 152.175 C 152.399 152.444,155.793 152.751,161.828 154.349 M119.303 178.798 C 116.042 179.815,109.919 183.962,108.636 186.022 C 108.327 186.520,106.437 188.915,104.436 191.345 C 99.837 196.931,99.861 197.125,105.400 199.249 C 120.962 205.214,135.962 196.972,138.114 181.272 L 138.617 177.600 130.709 177.654 C 126.359 177.683,121.226 178.198,119.303 178.798 M154.000 178.925 C 149.031 181.537,142.007 190.274,143.598 191.865 C 144.554 192.821,155.637 192.960,158.987 192.057 C 164.520 190.568,172.508 181.163,170.710 178.255 C 169.956 177.034,156.576 177.571,154.000 178.925 M226.922 178.202 C 225.137 181.090,232.779 190.700,237.979 192.106 C 241.101 192.949,253.138 192.728,254.057 191.810 C 255.354 190.512,247.905 181.192,243.963 179.181 C 240.801 177.568,227.776 176.820,226.922 178.202 M258.661 181.094 C 260.890 197.350,276.867 205.402,293.605 198.705 C 297.621 197.098,297.612 196.998,292.881 190.983 C 284.258 180.020,280.907 178.234,268.077 177.763 L 258.155 177.399 258.661 181.094 M152.400 199.446 C 147.086 201.558,140.557 208.327,138.425 213.936 C 137.440 216.524,141.189 217.907,149.200 217.912 C 159.513 217.918,168.003 210.888,168.925 201.579 L 169.200 198.800 162.000 198.646 C 157.921 198.559,153.760 198.906,152.400 199.446 M227.527 201.721 C 229.340 213.065,239.901 219.846,252.501 217.758 C 259.208 216.647,259.538 216.288,257.549 212.269 C 253.064 203.204,246.036 198.946,234.885 198.535 L 226.970 198.243 227.527 201.721 " stroke="none" fill="#000000" fill-rule="evenodd"></path></g></svg>