<?xml version="1.0" encoding="utf-8"?>
<svg viewBox="12.7046 7.8226 399.994 153.7097" xmlns="http://www.w3.org/2000/svg">
    <g id="svg" transform="matrix(1, 0, 0, 1, 12.704614639282227, 7.6265549659729)">
        <path id="path0"
            d="M337.032 2.642 C 329.326 13.065,329.399 22.007,337.268 31.533 C 339.804 34.604,341.012 34.184,344.779 28.919 C 350.285 21.222,350.017 11.582,344.079 3.805 C 340.637 -0.702,339.628 -0.869,337.032 2.642 M316.395 7.784 C 317.156 15.709,327.430 22.208,327.430 14.765 C 327.430 10.346,325.756 7.260,322.308 5.322 C 316.894 2.279,315.905 2.691,316.395 7.784 M357.925 5.149 C 353.278 7.982,350.458 16.556,353.758 17.822 C 357.413 19.224,363.715 12.339,363.715 6.942 C 363.715 2.865,362.359 2.445,357.925 5.149 M297.198 9.719 C 297.206 15.127,302.964 22.075,305.921 20.247 C 308.686 18.538,305.612 8.740,301.760 6.985 C 297.996 5.270,297.192 5.752,297.198 9.719 M376.156 8.985 C 373.195 11.945,371.863 18.931,374.006 20.255 C 375.401 21.118,380.084 17.793,381.422 14.988 C 385.095 7.291,381.709 3.431,376.156 8.985 M310.159 20.420 C 310.187 28.932,321.072 36.943,328.655 34.033 C 332.640 32.503,327.116 22.089,321.299 20.165 C 313.633 17.630,310.150 17.710,310.159 20.420 M361.752 19.411 C 350.709 21.827,345.097 34.557,355.075 34.557 C 361.748 34.557,366.423 30.954,368.832 23.953 C 371.049 17.507,370.898 17.410,361.752 19.411 M289.633 22.565 C 283.593 24.309,291.660 32.839,300.829 34.404 C 303.045 34.783,304.807 35.715,305.620 36.940 L 306.906 38.877 296.002 38.877 L 285.097 38.877 285.097 51.064 C 285.097 62.342,285.210 63.204,286.609 62.605 C 296.318 58.450,318.041 56.975,324.017 60.065 L 326.566 61.383 326.566 72.160 C 326.566 85.946,327.533 85.842,336.577 71.084 C 340.979 63.901,343.051 61.122,343.597 61.668 C 344.303 62.374,333.880 80.974,330.302 85.392 L 326.566 90.007 326.566 102.887 C 326.566 117.204,326.875 117.843,331.447 112.959 C 335.487 108.643,338.375 104.478,341.223 98.863 C 342.954 95.450,343.826 94.375,343.834 95.648 C 343.855 99.411,340.169 106.797,335.302 112.743 C 329.071 120.357,326.987 123.829,325.710 128.726 C 322.876 139.596,316.515 144.954,302.613 148.178 C 295.696 149.782,293.657 150.840,294.293 152.497 C 294.923 154.138,384.786 154.467,385.796 152.833 C 386.825 151.168,384.189 149.675,377.655 148.220 C 356.771 143.569,354.076 138.269,353.543 100.813 C 353.167 74.405,353.151 74.209,351.463 75.736 C 349.494 77.518,349.859 74.308,352.117 69.978 C 352.737 68.790,353.480 66.358,353.768 64.572 C 354.658 59.059,356.339 58.542,372.103 58.930 C 385.159 59.252,386.945 59.549,394.168 62.611 C 395.567 63.204,395.680 62.342,395.680 51.112 L 395.680 38.973 384.233 38.705 C 371.648 38.410,365.953 39.761,359.709 44.524 C 355.677 47.599,356.080 46.309,360.691 41.379 C 364.740 37.051,365.724 34.765,363.067 35.859 C 357.328 38.224,351.466 39.039,342.730 38.688 C 335.228 38.386,333.493 38.537,333.847 39.459 C 334.448 41.024,333.725 40.899,331.015 38.969 C 329.436 37.845,327.165 37.314,323.758 37.274 C 321.030 37.241,317.986 36.779,316.993 36.248 C 313.863 34.573,314.029 36.192,317.335 39.577 C 319.086 41.370,320.518 43.123,320.518 43.471 C 320.518 44.399,315.532 41.666,313.480 39.614 C 312.510 38.644,310.339 36.915,308.654 35.772 C 305.705 33.771,305.673 33.693,307.790 33.693 C 310.657 33.693,310.169 31.579,306.244 26.993 C 302.144 22.203,296.290 20.643,289.633 22.565 M379.554 22.856 C 375.769 24.502,370.626 30.174,370.626 32.701 C 370.626 34.079,378.024 34.677,382.168 33.634 C 386.346 32.582,393.559 26.035,392.859 23.931 C 392.130 21.740,383.687 21.058,379.554 22.856 M292.441 63.486 C 288.945 64.707,280.479 72.970,281.030 74.622 C 283.069 80.741,298.624 77.332,302.395 69.940 C 306.198 62.486,302.383 60.013,292.441 63.486 M312.734 64.147 C 305.692 68.939,305.327 72.530,311.879 72.556 C 317.933 72.579,326.523 65.211,323.023 62.995 C 320.787 61.579,315.664 62.153,312.734 64.147 M357.802 62.966 C 354.391 65.128,361.324 71.887,367.400 72.322 C 373.584 72.766,375.058 71.703,372.690 68.508 C 368.830 63.298,361.552 60.589,357.802 62.966 M376.161 63.398 C 375.062 66.262,379.393 73.290,384.017 76.146 L 386.609 77.747 378.834 77.720 C 373.722 77.702,370.318 77.270,368.898 76.458 C 366.809 75.263,358.451 74.667,357.475 75.642 C 356.406 76.711,359.031 82.333,361.688 84.666 L 364.523 87.155 364.767 97.357 L 365.011 107.559 374.082 110.672 L 383.153 113.785 383.426 117.514 C 383.935 124.467,382.006 126.855,376.916 125.577 C 375.202 125.147,374.946 124.535,374.946 120.873 C 374.946 116.180,373.787 115.360,367.938 115.919 L 365.011 116.199 364.759 123.357 C 364.383 134.084,366.152 135.637,378.754 135.637 C 387.612 135.637,387.960 135.564,390.699 133.118 L 393.521 130.600 393.806 119.252 C 394.150 105.567,394.524 106.164,383.471 102.730 L 374.946 100.082 374.946 94.195 C 374.946 88.585,375.051 88.282,377.179 87.748 C 381.783 86.592,383.181 88.043,383.780 94.600 C 384.012 97.137,384.118 97.192,388.769 97.192 L 393.521 97.192 393.521 89.992 C 393.521 82.953,393.458 82.737,390.699 80.273 L 387.878 77.754 390.466 77.754 C 393.187 77.754,400.004 75.369,399.994 74.420 C 399.930 68.004,378.242 57.974,376.161 63.398 M311.396 76.430 C 310.228 77.314,307.438 77.707,302.200 77.726 C 287.731 77.779,287.689 77.862,287.689 106.695 C 287.689 135.585,287.716 135.637,302.376 135.637 C 316.981 135.637,317.058 135.488,317.078 107.386 L 317.092 85.961 319.325 83.842 C 321.844 81.451,323.398 78.023,322.741 76.309 C 322.123 74.700,313.563 74.791,311.396 76.430 M2.525 80.279 L 0.000 82.804 0.000 106.695 L 0.000 130.586 2.525 133.112 C 5.028 135.614,5.143 135.637,15.119 135.637 C 30.116 135.637,31.585 133.510,30.939 112.743 L 30.670 104.104 23.066 103.853 L 15.462 103.603 15.723 108.605 C 15.969 113.345,16.107 113.621,18.359 113.880 C 20.612 114.140,20.734 114.385,20.721 118.632 C 20.702 125.042,18.609 126.943,12.940 125.698 L 10.367 125.133 10.367 106.728 C 10.367 88.371,10.372 88.321,12.311 87.802 C 17.923 86.297,20.068 87.636,20.688 93.028 L 21.166 97.192 24.902 97.461 C 29.693 97.806,31.107 96.584,31.081 92.119 C 31.011 80.084,28.403 77.754,15.004 77.754 C 5.155 77.754,5.024 77.780,2.525 80.279 M38.877 106.695 L 38.877 135.637 44.060 135.637 L 49.244 135.637 49.244 126.134 L 49.244 116.631 51.371 116.631 C 53.650 116.631,53.640 116.607,56.976 129.590 L 58.419 135.205 63.767 135.462 C 66.708 135.604,69.112 135.604,69.109 135.462 C 69.106 135.321,67.947 130.807,66.533 125.431 L 63.963 115.656 66.323 113.629 C 68.672 111.610,68.684 111.541,68.960 98.609 C 69.389 78.513,68.717 77.754,50.499 77.754 L 38.877 77.754 38.877 106.695 M77.290 78.820 C 77.056 79.430,76.968 92.366,77.093 107.567 L 77.322 135.205 92.009 135.205 L 106.695 135.205 106.695 130.886 L 106.695 126.566 96.976 126.322 L 87.257 126.077 87.257 118.796 L 87.257 111.514 94.816 111.265 L 102.376 111.015 102.645 107.280 C 103.038 101.807,102.032 101.080,94.063 101.080 L 87.257 101.080 87.257 94.600 L 87.257 88.121 96.223 88.121 C 106.553 88.121,107.376 87.646,106.964 81.921 L 106.695 78.186 92.206 77.949 C 81.038 77.766,77.618 77.966,77.290 78.820 M114.903 106.695 L 114.903 135.637 129.590 135.637 L 144.276 135.637 144.276 130.886 L 144.276 126.134 134.773 126.134 L 125.270 126.134 125.270 118.790 L 125.270 111.447 132.613 111.447 L 139.957 111.447 139.957 106.788 C 139.957 101.268,139.670 101.080,131.247 101.080 L 125.270 101.080 125.270 94.600 L 125.270 88.121 133.407 88.121 C 144.202 88.121,144.276 88.082,144.276 82.413 L 144.276 77.754 129.590 77.754 L 114.903 77.754 114.903 106.695 M152.444 78.841 C 152.215 79.439,152.130 92.366,152.255 107.567 L 152.484 135.205 157.154 135.471 C 163.285 135.820,163.245 135.919,163.319 120.086 L 163.381 106.695 168.614 121.166 L 173.848 135.637 178.933 135.637 L 184.017 135.637 184.017 106.695 L 184.017 77.754 178.854 77.754 L 173.690 77.754 173.454 92.993 L 173.218 108.232 169.427 97.528 C 167.342 91.642,164.884 84.784,163.965 82.289 L 162.295 77.754 157.578 77.754 C 154.585 77.754,152.709 78.151,152.444 78.841 M211.663 106.739 L 211.663 135.723 216.631 135.464 L 221.598 135.205 221.843 125.918 C 222.083 116.857,222.137 116.631,224.088 116.631 C 225.898 116.631,226.326 117.511,228.604 125.918 L 231.121 135.205 236.079 135.464 C 242.026 135.775,241.934 136.157,238.779 124.194 L 236.521 115.635 238.313 114.379 C 240.961 112.525,241.890 107.892,241.896 96.517 C 241.904 78.996,240.691 77.754,223.566 77.754 L 211.663 77.754 211.663 106.739 M254.257 78.788 C 250.004 80.843,249.573 83.706,249.851 108.064 L 250.108 130.598 252.929 133.118 C 256.938 136.697,272.206 136.982,276.194 133.552 L 278.618 131.467 278.618 106.695 L 278.618 81.924 276.194 79.839 C 273.511 77.531,258.361 76.805,254.257 78.788 M57.321 88.351 C 58.592 89.280,58.780 90.680,58.566 97.638 L 58.315 105.832 53.780 106.093 L 49.244 106.354 49.244 96.805 L 49.244 87.257 52.535 87.257 C 54.344 87.257,56.499 87.749,57.321 88.351 M230.176 88.615 C 231.169 89.607,231.533 91.713,231.533 96.447 C 231.533 104.984,230.798 106.263,225.888 106.263 L 222.030 106.263 222.030 96.760 L 222.030 87.257 225.424 87.257 C 227.358 87.257,229.402 87.841,230.176 88.615 M268.510 88.294 C 269.975 89.759,269.975 123.632,268.510 125.097 C 267.403 126.204,263.662 126.474,261.410 125.610 C 259.593 124.912,259.317 88.558,261.123 87.829 C 263.192 86.994,267.480 87.264,268.510 88.294 M306.263 106.695 L 306.263 125.702 302.376 125.702 L 298.488 125.702 298.254 107.582 C 297.979 86.262,297.804 87.077,302.584 87.423 L 306.263 87.689 306.263 106.695 "
            stroke="none" fill-rule="evenodd" style="fill: #3c6b45;" />
    </g>
</svg>