<svg id="svg" xmlns="http://www.w3.org/2000/svg" xmlns:xlink="http://www.w3.org/1999/xlink" width="400" height="400" viewBox="0, 0, 400,400"><g id="svgg"><path id="path0" d="M14.710 151.184 C 9.826 153.157,9.600 154.314,9.600 177.295 L 9.600 198.375 11.933 200.987 C 14.211 203.537,14.447 203.607,21.786 203.872 C 35.981 204.386,37.779 202.258,37.423 185.371 L 37.200 174.800 30.800 174.800 L 24.400 174.800 24.158 179.000 L 23.916 183.200 26.358 183.200 L 28.800 183.200 28.800 188.302 C 28.800 194.469,27.966 195.385,22.662 195.046 L 18.800 194.800 18.800 177.200 L 18.800 159.600 22.662 159.354 C 27.586 159.040,28.800 160.065,28.800 164.540 L 28.800 168.084 33.000 167.842 L 37.200 167.600 37.459 163.600 C 38.112 153.514,34.808 150.379,23.600 150.454 C 19.640 150.480,15.640 150.809,14.710 151.184 M45.600 177.200 L 45.600 204.000 49.974 204.000 L 54.348 204.000 54.574 195.000 L 54.800 186.000 56.931 185.753 C 58.434 185.580,59.188 185.934,59.486 186.953 C 60.187 189.347,62.255 196.974,63.188 200.600 L 64.062 204.000 68.431 204.000 C 70.834 204.000,72.800 203.730,72.799 203.400 C 72.799 203.070,71.749 198.887,70.465 194.105 L 68.132 185.410 70.266 183.576 C 72.379 181.760,72.403 181.624,72.659 169.579 C 73.051 151.184,72.357 150.400,55.679 150.400 L 45.600 150.400 45.600 177.200 M81.600 177.200 L 81.600 204.040 94.600 203.820 L 107.600 203.600 107.600 199.600 L 107.600 195.600 98.800 195.200 L 90.000 194.800 90.000 188.400 L 90.000 182.000 96.800 181.600 L 103.600 181.200 103.600 177.200 L 103.600 173.200 96.800 172.800 L 90.000 172.400 90.000 166.000 L 90.000 159.600 98.800 159.200 L 107.600 158.800 107.600 154.800 L 107.600 150.800 94.600 150.580 L 81.600 150.360 81.600 177.200 M116.000 177.200 L 116.000 204.000 129.200 204.000 L 142.400 204.000 142.400 199.600 L 142.400 195.200 133.600 195.200 L 124.800 195.200 124.800 188.400 L 124.800 181.600 131.600 181.600 L 138.400 181.600 138.400 177.200 L 138.400 172.800 131.600 172.800 L 124.800 172.800 124.800 166.000 L 124.800 159.200 133.600 159.200 L 142.400 159.200 142.400 154.800 L 142.400 150.400 129.200 150.400 L 116.000 150.400 116.000 177.200 M151.200 177.200 L 151.200 204.084 155.400 203.842 L 159.600 203.600 160.000 189.200 L 160.400 174.800 164.338 186.000 C 170.967 204.854,170.453 204.000,175.172 204.000 L 179.200 204.000 179.200 177.200 L 179.200 150.400 174.800 150.400 L 170.400 150.400 170.400 164.933 C 170.400 172.927,170.146 179.213,169.835 178.902 C 169.525 178.592,167.064 172.142,164.367 164.569 L 159.462 150.800 155.331 150.558 L 151.200 150.316 151.200 177.200 M205.600 177.200 L 205.600 204.000 209.974 204.000 L 214.348 204.000 214.574 195.000 L 214.800 186.000 216.931 185.753 C 218.434 185.580,219.188 185.934,219.486 186.953 C 220.187 189.347,222.255 196.974,223.188 200.600 L 224.062 204.000 228.431 204.000 C 230.834 204.000,232.800 203.730,232.799 203.400 C 232.799 203.070,231.749 198.887,230.465 194.105 L 228.132 185.410 230.266 183.576 C 232.379 181.760,232.403 181.624,232.659 169.579 C 233.051 151.184,232.357 150.400,215.679 150.400 L 205.600 150.400 205.600 177.200 M245.863 151.566 C 241.735 153.362,241.600 154.174,241.600 177.200 C 241.600 203.864,241.667 204.000,254.814 204.000 C 267.339 204.000,268.000 202.657,268.000 177.200 C 268.000 156.287,267.552 153.850,263.303 151.653 C 260.238 150.068,249.431 150.014,245.863 151.566 M281.200 151.156 C 276.468 153.093,276.400 153.462,276.400 177.266 L 276.400 199.164 278.613 201.376 C 283.001 205.764,298.711 204.813,301.195 200.009 C 302.944 196.627,302.969 157.821,301.224 154.447 C 299.362 150.846,286.943 148.806,281.200 151.156 M309.600 154.800 L 309.600 159.200 314.000 159.200 L 318.400 159.200 318.400 181.600 L 318.400 204.000 322.800 204.000 L 327.200 204.000 327.200 181.600 L 327.200 159.200 331.600 159.200 L 336.000 159.200 336.000 154.800 L 336.000 150.400 322.800 150.400 L 309.600 150.400 309.600 154.800 M348.310 151.147 C 343.874 153.038,343.139 155.411,343.378 167.083 L 343.600 177.895 352.200 180.720 L 360.800 183.546 360.800 188.475 C 360.800 194.267,359.867 195.415,355.456 195.052 L 352.400 194.800 352.158 190.600 L 351.916 186.400 347.558 186.400 L 343.200 186.400 343.200 192.387 C 343.200 197.872,343.396 198.594,345.534 200.987 L 347.869 203.600 356.316 203.600 C 368.572 203.600,369.107 202.987,369.459 188.531 C 369.763 176.061,370.409 177.070,360.000 173.759 L 352.400 171.342 352.160 166.401 C 351.881 160.663,352.730 159.200,356.338 159.200 C 359.751 159.200,360.800 160.460,360.800 164.560 L 360.800 168.000 365.285 168.000 L 369.769 168.000 369.479 161.613 C 369.057 152.302,367.481 150.869,357.383 150.613 C 353.322 150.511,349.240 150.751,348.310 151.147 M63.828 167.757 C 64.086 177.021,63.521 177.924,57.766 177.446 L 54.800 177.200 54.573 168.159 L 54.347 159.119 58.973 159.359 L 63.600 159.600 63.828 167.757 M223.828 167.757 C 224.086 177.021,223.521 177.924,217.766 177.446 L 214.800 177.200 214.573 168.159 L 214.347 159.119 218.973 159.359 L 223.600 159.600 223.828 167.757 M258.800 177.200 L 258.800 194.800 255.229 195.054 C 249.757 195.444,249.600 194.950,249.600 177.395 C 249.600 159.563,249.765 159.017,255.051 159.358 L 258.800 159.600 258.800 177.200 M293.914 160.465 C 294.654 162.394,294.469 193.052,293.710 194.249 C 293.270 194.943,291.719 195.214,289.123 195.049 L 285.200 194.800 284.983 178.021 C 284.864 168.792,284.943 160.782,285.158 160.221 C 285.760 158.651,293.299 158.862,293.914 160.465 " stroke="none" fill="#000000" fill-rule="evenodd"></path></g></svg>